<svg xmlns="http://www.w3.org/2000/svg" data-name="Layer 1" viewBox="0 0 32 30" x="0px" y="0px"><title>Basic UI flatten</title><path d="M5,6H3A1,1,0,0,1,3,4H5A1,1,0,0,1,5,6Z"/><path d="M9.55,22H23.33a2,2,0,0,0,2-1.67l1.49-9a2,2,0,0,0-2-2.33h-18L6,4.79a1,1,0,1,0-2,.39l1,5L6.81,21A3.33,3.33,0,0,0,5.7,23.48,3.37,3.37,0,0,0,7.12,26.2,3,3,0,0,0,7,27a3,3,0,0,0,6,0h7a3,3,0,1,0,.78-2H12.22a3,3,0,0,0-4-.44,1.38,1.38,0,0,1-.56-1.06A1.7,1.7,0,0,1,9.55,22ZM23,26a1,1,0,1,1-1,1A1,1,0,0,1,23,26Zm.33-5V20h0Zm1.49-10-1.49,9H8.67L7.18,11ZM10,26a1,1,0,1,1-1,1A1,1,0,0,1,10,26Z"/></svg>