<svg xmlns="http://www.w3.org/2000/svg" xmlns:xlink="http://www.w3.org/1999/xlink" version="1.1" x="0px" y="0px" viewBox="0 0 100 100" enable-background="new 0 0 100 100" xml:space="preserve"><g><path fill="#000000" d="M88.955,49.399l5.081-4.382c1.056-0.91,1.173-2.504,0.263-3.56c-0.91-1.055-2.504-1.173-3.559-0.263   l-5.671,4.893c-1.465-1.173-3.119-2.414-4.94-3.659c-0.671-0.459-1.345-0.902-2.021-1.334l3.745-5.644   c0.771-1.161,0.454-2.728-0.706-3.498c-1.162-0.771-2.728-0.454-3.499,0.707l-3.892,5.865c-2.397-1.303-4.803-2.425-7.198-3.354   c-0.313-0.121-0.628-0.239-0.94-0.354l1.89-6.393c0.396-1.337-0.369-2.74-1.705-3.135c-1.337-0.396-2.74,0.368-3.135,1.704   l-1.865,6.311c-2.906-0.758-5.789-1.227-8.625-1.401v-6.907c0-1.394-1.13-2.523-2.523-2.523c-1.394,0-2.524,1.13-2.524,2.523v6.907   c-2.83,0.175-5.707,0.642-8.606,1.396l-1.864-6.306c-0.395-1.336-1.798-2.1-3.135-1.704c-1.336,0.395-2.1,1.798-1.705,3.135   l1.888,6.386c-0.32,0.117-0.639,0.236-0.958,0.36c-2.39,0.927-4.792,2.047-7.184,3.346l-3.887-5.857   c-0.771-1.161-2.336-1.478-3.498-0.707c-1.161,0.771-1.478,2.337-0.707,3.498l3.74,5.635c-0.68,0.435-1.359,0.881-2.036,1.343   c-1.812,1.238-3.458,2.474-4.917,3.641l-4.981-4.39c-1.045-0.922-2.64-0.821-3.561,0.224c-0.922,1.046-0.821,2.641,0.224,3.562   l4.436,3.91c-2.28,2.069-3.581,3.496-3.682,3.607l-1.532,1.693l1.532,1.693c0.196,0.217,4.887,5.363,12.48,10.553   c4.477,3.06,9.042,5.502,13.571,7.258c5.728,2.221,11.416,3.347,16.905,3.347c5.488,0,11.175-1.126,16.904-3.347   c4.528-1.756,9.095-4.198,13.57-7.258c7.596-5.189,12.285-10.336,12.481-10.553l1.532-1.693l-1.532-1.693   C92.51,52.871,91.219,51.455,88.955,49.399z M77.179,62.826c-4.146,2.824-8.356,5.069-12.512,6.673   c-5.12,1.978-10.172,2.98-15.012,2.98c-4.842,0-9.893-1.003-15.014-2.98c-4.156-1.604-8.365-3.849-12.512-6.673   c-4.588-3.125-8.093-6.284-10.021-8.151c1.908-1.851,5.365-4.967,9.918-8.079c4.157-2.842,8.378-5.103,12.547-6.719   c5.144-1.993,10.217-3.005,15.081-3.005c4.84,0,9.892,1.002,15.012,2.979c4.155,1.604,8.366,3.85,12.512,6.674   c4.588,3.124,8.092,6.282,10.021,8.15C85.27,56.545,81.767,59.702,77.179,62.826z"/><path fill="#000000" d="M49.637,41.126c-3.498,0-6.686,1.329-9.084,3.511l7.847,9.069l-11.545-3.451   c-0.47,1.374-0.727,2.848-0.727,4.381c0,7.461,6.049,13.51,13.51,13.51s13.51-6.049,13.51-13.51   C63.146,47.174,57.098,41.126,49.637,41.126z"/></g></svg>