<svg xmlns="http://www.w3.org/2000/svg" xmlns:xlink="http://www.w3.org/1999/xlink" version="1.1" x="0px" y="0px" viewBox="0 0 32 40" style="enable-background:new 0 0 32 32;" xml:space="preserve"><g><path d="M29.5,16C29.5,16,29.5,16,29.5,16C29.5,16,29.5,16,29.5,16c0-0.1,0-0.1,0-0.2c0-0.1,0-0.1,0-0.2l-2.8-7   C26.4,8.2,26.1,8,25.7,8h-3.9h-3.9h-3.9h-3.9H6.3C5.9,8,5.6,8.2,5.4,8.6l-2.8,7c0,0.1,0,0.1,0,0.2c0,0.1,0,0.1,0,0.2c0,0,0,0,0,0   c0,0,0,0,0,0c0,1.6,1.1,2.9,2.5,3.3V30c0,0.6,0.4,1,1,1h4h5h11c0.6,0,1-0.4,1-1V19.3C28.4,18.9,29.5,17.6,29.5,16z M10.3,12.8   c0.2-0.8,0.5-1.5,0.7-2.8H13l-0.2,2.4c-0.1,0.9-0.2,1.8-0.3,3.5l0,0c0,0,0,0,0,0c0,0,0,0,0,0c0,0,0,0,0,0c0,0,0,0,0,0   c0,0.8-0.7,1.5-1.5,1.5c-0.8,0-1.4-0.6-1.5-1.4L10.3,12.8z M14.8,12.6c0.1-0.7,0.1-1.5,0.2-2.6h2l0.5,6c0,0.8-0.7,1.5-1.5,1.5   s-1.5-0.7-1.5-1.5L14.8,12.6z M19.5,16C19.5,15.9,19.5,15.9,19.5,16L19,10h2l1.5,6.1c0,0.8-0.7,1.4-1.5,1.4   C20.2,17.5,19.5,16.8,19.5,16C19.5,16,19.5,16,19.5,16z M4.5,16.2L7,10h1.9l-0.5,2.2c-0.3,0.9-0.6,1.9-0.9,3.6c0,0,0,0.1,0,0.1   c0,0,0,0.1,0,0.1c0,0.8-0.7,1.5-1.5,1.5C5.2,17.5,4.6,16.9,4.5,16.2z M11,29v-6h3v6H11z M16,29v-7c0-0.6-0.4-1-1-1h-5   c-0.6,0-1,0.4-1,1v7H7v-9.7c0.6-0.2,1.1-0.5,1.5-0.9c0.6,0.7,1.5,1.1,2.5,1.1s1.9-0.4,2.5-1.1c0.6,0.7,1.5,1.1,2.5,1.1   s1.9-0.4,2.5-1.1c0.6,0.7,1.5,1.1,2.5,1.1s1.9-0.4,2.5-1.1c0.4,0.4,0.9,0.7,1.5,0.9V29H16z M26,17.5c-0.8,0-1.5-0.7-1.5-1.5   c0,0,0-0.1,0-0.1c0,0,0-0.1,0-0.1L23.1,10H25l2.5,6.2C27.4,16.9,26.8,17.5,26,17.5z"/><path d="M22,21h-3c-0.6,0-1,0.4-1,1v4c0,0.6,0.4,1,1,1h3c0.6,0,1-0.4,1-1v-4C23,21.4,22.5,21,22,21z M21,25h-1v-2   h1V25z"/></g></svg>